<?xml version="1.0" encoding="utf-8"?>
<!-- Generator: Adobe Illustrator 16.0.4, SVG Export Plug-In . SVG Version: 6.00 Build 0)  -->
<!DOCTYPE svg PUBLIC "-//W3C//DTD SVG 1.1//EN" "http://www.w3.org/Graphics/SVG/1.1/DTD/svg11.dtd">
<svg version="1.1" id="Ebene_1" xmlns="http://www.w3.org/2000/svg" xmlns:xlink="http://www.w3.org/1999/xlink" x="0px" y="0px"
	 width="365px" height="32px" viewBox="0 0 365 32" enable-background="new 0 0 365 32" xml:space="preserve">
<polygon fill="#000099" points="7.799,20.97 9.438,20.97 11.937,8.936 15.875,8.936 16.154,7.637 6.28,7.637 6,8.936 10.297,8.936 
	"/>
<path fill="#000099" d="M21.452,18.87c-1.499,0.938-2.059,1.16-2.938,1.16c-1.459,0-2.458-1.101-2.458-2.72
	c0-0.279,0.02-0.539,0.12-1.199h6.477c0.04-0.66,0.06-1.06,0.06-1.359c0-2.419-1.039-3.679-3.018-3.679
	c-1.52,0-2.858,0.78-3.918,2.26c-0.799,1.159-1.219,2.458-1.219,3.816c0,2.5,1.439,4.099,3.678,4.099c0.719,0,1.479-0.181,2.119-0.5
	c0.439-0.2,0.52-0.24,1.639-0.919L21.452,18.87L21.452,18.87z M16.435,15.093c0.34-0.84,0.52-1.2,0.839-1.619
	c0.64-0.859,1.5-1.359,2.359-1.359c1.06,0,1.659,0.779,1.659,2.139c0,0.14-0.02,0.52-0.04,0.84L16.435,15.093L16.435,15.093z"/>
<path fill="#000099" d="M31.287,19.05c-1.1,0.74-1.879,1.021-2.798,1.021c-1.379,0-2.359-1.1-2.359-2.658
	c0-2.879,2.299-5.157,5.197-5.157c0.34,0,0.56,0.021,1,0.101l0.439-1.08c-0.68-0.16-1-0.2-1.579-0.2
	c-3.698,0-6.636,2.778-6.636,6.297c0,2.339,1.439,3.918,3.578,3.918c1.219,0,1.999-0.279,3.718-1.339L31.287,19.05L31.287,19.05z"/>
<path fill="#000099" d="M33.665,20.97h1.519l1.359-6.537c1.479-1.379,2.699-2.099,3.559-2.099c0.619,0,1.039,0.399,1.039,1
	c0,0.3-0.08,0.879-0.22,1.538l-1.279,6.098h1.559l1.399-6.697c0.1-0.479,0.16-0.979,0.16-1.318c0-1.12-0.78-1.88-1.959-1.88
	c-1.319,0-2.738,0.74-3.998,2.079l1.359-6.516h-1.519L33.665,20.97L33.665,20.97z"/>
<path fill="#000099" d="M44.539,20.97h1.519l1.379-6.557c1.499-1.38,2.738-2.099,3.558-2.099c0.64,0,1.04,0.419,1.04,1.079
	c0,0.26-0.02,0.439-0.06,0.659l-1.439,6.917h1.559l1.399-6.737c0.081-0.419,0.14-0.898,0.14-1.238c0-1.18-0.779-1.92-2.039-1.92
	c-1.299,0-2.378,0.58-4.058,2.139l0.52-1.858h-1.519L44.539,20.97L44.539,20.97z"/>
<path fill="#000099" d="M55.453,20.97h1.579l1.979-9.615h-1.559L55.453,20.97L55.453,20.97z M57.852,9.275h1.639l0.36-1.699h-1.639
	L57.852,9.275L57.852,9.275z"/>
<path fill="#000099" d="M59.971,20.709c1.02,0.42,1.579,0.54,2.519,0.54c2.339,0,3.858-1.159,3.858-2.958
	c0-0.96-0.56-1.779-1.619-2.379l-0.979-0.56c-0.64-0.36-0.959-0.84-0.959-1.42c0-1.06,0.879-1.738,2.219-1.738
	c0.72,0,1.319,0.1,2.039,0.339l0.42-1.059c-0.92-0.28-1.64-0.4-2.459-0.4c-2.239,0-3.758,1.18-3.758,2.938
	c0,1,0.54,1.859,1.519,2.398l0.7,0.381c0.979,0.559,1.339,0.999,1.339,1.679c0,0.979-0.919,1.64-2.299,1.64
	c-0.7,0-1.259-0.119-2.059-0.459L59.971,20.709L59.971,20.709z"/>
<path fill="#000099" d="M75.322,19.05c-1.099,0.74-1.879,1.021-2.798,1.021c-1.379,0-2.359-1.1-2.359-2.658
	c0-2.879,2.299-5.157,5.197-5.157c0.34,0,0.56,0.021,1,0.101l0.439-1.08c-0.679-0.16-0.999-0.2-1.579-0.2
	c-3.698,0-6.636,2.778-6.636,6.297c0,2.339,1.439,3.918,3.578,3.918c1.219,0,1.999-0.279,3.718-1.339L75.322,19.05L75.322,19.05z"/>
<path fill="#000099" d="M77.699,20.97h1.52l1.359-6.537c1.479-1.379,2.698-2.099,3.558-2.099c0.62,0,1.04,0.399,1.04,1
	c0,0.3-0.08,0.879-0.22,1.538l-1.279,6.098h1.559l1.399-6.697c0.1-0.479,0.16-0.979,0.16-1.318c0-1.12-0.779-1.88-1.959-1.88
	c-1.319,0-2.738,0.74-3.998,2.079l1.359-6.516h-1.52L77.699,20.97L77.699,20.97z"/>
<path fill="#000099" d="M95.79,18.87c-1.499,0.938-2.059,1.16-2.938,1.16c-1.459,0-2.458-1.101-2.458-2.72
	c0-0.279,0.02-0.539,0.12-1.199h6.476c0.04-0.66,0.06-1.06,0.06-1.359c0-2.419-1.04-3.679-3.018-3.679
	c-1.52,0-2.859,0.78-3.918,2.26c-0.799,1.159-1.219,2.458-1.219,3.816c0,2.5,1.439,4.099,3.678,4.099c0.72,0,1.479-0.181,2.119-0.5
	c0.439-0.2,0.52-0.24,1.639-0.919L95.79,18.87L95.79,18.87z M90.772,15.093c0.34-0.84,0.52-1.2,0.839-1.619
	c0.64-0.859,1.5-1.359,2.359-1.359c1.06,0,1.659,0.779,1.659,2.139c0,0.14-0.02,0.52-0.04,0.84L90.772,15.093L90.772,15.093z"/>
<path fill="#000099" d="M118.264,7.637h-1.619l-1.779,8.575c-0.54,2.599-1.839,3.878-3.938,3.878c-1.879,0-3.138-1.1-3.138-2.759
	c0-0.46,0.06-0.92,0.16-1.419l1.719-8.275h-1.639l-1.659,8.035c-0.14,0.6-0.2,1.199-0.2,1.719c0,2.399,1.759,3.858,4.618,3.858
	c1.739,0,3.138-0.521,4.098-1.499c0.799-0.84,1.219-1.739,1.559-3.438L118.264,7.637L118.264,7.637z"/>
<path fill="#000099" d="M119.007,20.97h1.519l1.379-6.557c1.5-1.38,2.739-2.099,3.559-2.099c0.639,0,1.039,0.419,1.039,1.079
	c0,0.26-0.02,0.439-0.06,0.659l-1.439,6.917h1.559l1.399-6.737c0.08-0.419,0.14-0.898,0.14-1.238c0-1.18-0.78-1.92-2.039-1.92
	c-1.299,0-2.378,0.58-4.058,2.139l0.52-1.858h-1.52L119.007,20.97L119.007,20.97z"/>
<path fill="#000099" d="M129.92,20.97h1.579l1.979-9.615h-1.559L129.92,20.97L129.92,20.97z M132.319,9.275h1.639l0.36-1.699h-1.639
	L132.319,9.275L132.319,9.275z"/>
<polygon fill="#000099" points="137.577,20.97 138.916,20.97 144.313,11.675 142.994,11.114 138.596,19.03 136.997,11.114 
	135.478,11.475 "/>
<path fill="#000099" d="M151.555,18.87c-1.5,0.938-2.059,1.16-2.938,1.16c-1.459,0-2.459-1.101-2.459-2.72
	c0-0.279,0.02-0.539,0.12-1.199h6.477c0.04-0.66,0.06-1.06,0.06-1.359c0-2.419-1.039-3.679-3.018-3.679
	c-1.519,0-2.858,0.78-3.918,2.26c-0.799,1.159-1.219,2.458-1.219,3.816c0,2.5,1.439,4.099,3.678,4.099c0.72,0,1.479-0.181,2.119-0.5
	c0.439-0.2,0.52-0.24,1.639-0.919L151.555,18.87L151.555,18.87z M146.537,15.093c0.34-0.84,0.52-1.2,0.84-1.619
	c0.64-0.859,1.499-1.359,2.358-1.359c1.06,0,1.659,0.779,1.659,2.139c0,0.14-0.02,0.52-0.04,0.84L146.537,15.093L146.537,15.093z"/>
<path fill="#000099" d="M154.494,20.97h1.499l1.379-6.637c1.1-1.46,1.62-1.819,2.599-1.819c0.3,0,0.46,0.04,0.82,0.141l0.399-1.46
	c-0.379-0.08-0.56-0.1-0.799-0.1c-1.1,0-2.059,0.64-2.858,1.938l0.46-1.679h-1.5L154.494,20.97L154.494,20.97z"/>
<path fill="#000099" d="M160.872,20.709c1.02,0.42,1.579,0.54,2.519,0.54c2.339,0,3.858-1.159,3.858-2.958
	c0-0.96-0.56-1.779-1.619-2.379l-0.979-0.56c-0.64-0.36-0.959-0.84-0.959-1.42c0-1.06,0.879-1.738,2.219-1.738
	c0.72,0,1.319,0.1,2.039,0.339l0.419-1.059c-0.919-0.28-1.639-0.4-2.458-0.4c-2.239,0-3.758,1.18-3.758,2.938
	c0,1,0.54,1.859,1.519,2.398l0.7,0.381c0.979,0.559,1.339,0.999,1.339,1.679c0,0.979-0.919,1.64-2.299,1.64
	c-0.7,0-1.259-0.119-2.059-0.459L160.872,20.709L160.872,20.709z"/>
<path fill="#000099" d="M169.367,20.97h1.579l1.979-9.615h-1.559L169.367,20.97L169.367,20.97z M171.765,9.275h1.639l0.36-1.699
	h-1.639L171.765,9.275L171.765,9.275z"/>
<path fill="#000099" d="M174.904,12.454h2.059l-0.999,4.797c-0.22,1.04-0.26,1.3-0.26,1.799c0,1.319,0.8,2.199,1.999,2.199
	c0.8,0,1.08-0.101,2.778-1.039l-0.459-0.92c-1.08,0.58-1.439,0.72-1.879,0.72c-0.56,0-0.959-0.398-0.959-0.96
	c0-0.34,0.08-0.879,0.2-1.519l1.06-5.077h2.279l0.22-1.1h-2.279l0.8-3.778h-1.5l-0.779,3.778h-2.059L174.904,12.454L174.904,12.454z
	"/>
<path fill="#000099" d="M190.154,19.71c-0.578,0.32-0.698,0.38-0.918,0.38c-0.262,0-0.4-0.18-0.4-0.54
	c0-0.239,0.021-0.38,0.16-1.079l0.898-4.317c0.101-0.44,0.16-0.94,0.16-1.22c0-1.199-0.779-1.859-2.219-1.859
	c-1.3,0-2.559,0.46-4.197,1.52l0.619,0.899c1.399-0.899,2.379-1.299,3.238-1.299c0.699,0,1.119,0.339,1.119,0.899
	c0,0.119-0.02,0.26-0.04,0.399l-0.3,1.439c-1.639,0.18-2.658,0.38-3.539,0.699c-1.758,0.62-2.677,1.699-2.677,3.158
	c0,1.38,1.08,2.459,2.5,2.459c1.06,0,1.959-0.479,2.938-1.539l-0.021,0.42c0,0.68,0.4,1.119,0.979,1.119c0.42,0,0.76-0.12,1.5-0.54
	c0.198-0.101,0.399-0.22,0.579-0.34L190.154,19.71L190.154,19.71z M187.497,18.65l-0.479,0.5c-0.539,0.578-1.34,0.959-1.998,0.959
	c-0.86,0-1.5-0.641-1.5-1.5c0-0.719,0.399-1.338,1.16-1.799c0.698-0.419,1.618-0.659,3.397-0.938L187.497,18.65L187.497,18.65z
	 M185.1,9.176h1.559l0.34-1.6h-1.559L185.1,9.176L185.1,9.176z M188.416,9.176h1.561l0.319-1.6h-1.56L188.416,9.176L188.416,9.176z"
	/>
<path fill="#000099" d="M192.757,12.454h2.06l-1,4.797c-0.221,1.04-0.26,1.3-0.26,1.799c0,1.319,0.799,2.199,1.998,2.199
	c0.801,0,1.079-0.101,2.778-1.039l-0.459-0.92c-1.08,0.58-1.438,0.72-1.879,0.72c-0.56,0-0.96-0.398-0.96-0.96
	c0-0.34,0.08-0.879,0.199-1.519l1.061-5.077h2.278l0.22-1.1h-2.277l0.799-3.778h-1.5l-0.778,3.778h-2.06L192.757,12.454
	L192.757,12.454z"/>
<polygon fill="#000099" points="206.535,20.97 208.154,20.97 209.453,14.673 216.449,14.673 215.15,20.97 216.77,20.97 
	219.548,7.637 217.93,7.637 216.729,13.413 209.713,13.413 210.912,7.637 209.312,7.637 "/>
<path fill="#000099" d="M228.346,19.71c-0.578,0.32-0.699,0.38-0.919,0.38c-0.26,0-0.399-0.18-0.399-0.54
	c0-0.239,0.021-0.38,0.16-1.079l0.898-4.317c0.102-0.44,0.16-0.94,0.16-1.22c0-1.199-0.779-1.859-2.219-1.859
	c-1.301,0-2.56,0.46-4.198,1.52l0.62,0.899c1.398-0.899,2.379-1.299,3.238-1.299c0.699,0,1.119,0.339,1.119,0.899
	c0,0.119-0.021,0.26-0.041,0.399l-0.3,1.439c-1.639,0.18-2.657,0.38-3.538,0.699c-1.759,0.62-2.678,1.699-2.678,3.158
	c0,1.38,1.079,2.459,2.498,2.459c1.061,0,1.959-0.479,2.938-1.539l-0.021,0.42c0,0.68,0.399,1.119,0.979,1.119
	c0.42,0,0.76-0.12,1.5-0.54c0.199-0.101,0.398-0.22,0.578-0.34L228.346,19.71L228.346,19.71z M225.688,18.65l-0.479,0.5
	c-0.54,0.578-1.34,0.959-1.999,0.959c-0.858,0-1.499-0.641-1.499-1.5c0-0.719,0.398-1.338,1.159-1.799
	c0.698-0.419,1.619-0.659,3.397-0.938L225.688,18.65L225.688,18.65z"/>
<path fill="#000099" d="M230.407,20.97h1.499l1.38-6.717c1.599-1.259,2.698-1.879,3.397-1.879c0.6,0,0.959,0.34,0.959,0.92
	c0,0.259,0,0.359-0.039,0.539l-1.479,7.137h1.499l1.38-6.717c1.56-1.299,2.64-1.919,3.397-1.919c0.539,0,0.92,0.34,0.92,0.8
	c0,0.26-0.041,0.6-0.12,0.979l-1.419,6.856h1.539l1.398-6.717c0.08-0.42,0.141-0.919,0.141-1.239c0-1.239-0.66-1.939-1.779-1.939
	c-1.219,0-2.559,0.7-3.878,2.02v-0.34c0-0.96-0.72-1.68-1.72-1.68c-1.14,0-2.237,0.561-4.018,2.02l0.42-1.739h-1.479L230.407,20.97
	L230.407,20.97z"/>
<path fill="#000099" d="M246.664,20.97c1.52,0.04,2.039,0.061,2.499,0.061c1.479,0,2.578-0.28,3.657-0.921
	c1.959-1.178,3.219-3.357,3.219-5.615c0-2.02-1.18-3.419-2.857-3.419c-1.279,0-2.38,0.601-3.358,1.839l1.319-6.275h-1.5
	L246.664,20.97L246.664,20.97z M249.562,14.253c1.42-1.479,2.179-1.959,3.158-1.959c1.059,0,1.76,0.899,1.76,2.238
	c0,1.6-0.74,3.237-1.939,4.258c-0.939,0.819-1.999,1.18-3.378,1.18l-0.8-0.02L249.562,14.253L249.562,14.253z"/>
<path fill="#000099" d="M259.579,11.354l-1.399,6.816c-0.101,0.479-0.16,0.919-0.16,1.319c0,1.019,0.801,1.759,1.92,1.759
	c1.358,0,2.578-0.721,3.998-2.299l-0.5,2.02h1.498l2-9.615h-1.5l-1.318,6.376c-1.6,1.68-2.579,2.278-3.618,2.278
	c-0.521,0-0.919-0.38-0.919-0.858c0-0.221,0.08-0.721,0.18-1.26l1.359-6.537H259.579L259.579,11.354z"/>
<path fill="#000099" d="M268.334,20.97h1.499l1.379-6.637c1.101-1.46,1.62-1.819,2.601-1.819c0.299,0,0.459,0.04,0.818,0.141
	l0.398-1.46c-0.379-0.08-0.559-0.1-0.799-0.1c-1.1,0-2.06,0.64-2.858,1.938l0.46-1.679h-1.499L268.334,20.97L268.334,20.97z"/>
<path fill="#000099" d="M284.327,11.374l-2.879,0.061c-0.699-0.28-1.06-0.36-1.659-0.36c-1.039,0-1.919,0.32-2.598,0.94
	c-0.721,0.659-1.2,1.679-1.2,2.598c0,1.06,0.42,1.779,1.278,2.259l-1.619,0.858c-0.539,0.301-0.879,0.66-0.879,0.979
	c0,0.301,0.199,0.54,0.601,0.76c0.319,0.2,0.659,0.28,1.679,0.48c-1.959,0.719-3.019,1.759-3.019,2.958
	c0,1.56,1.64,2.679,3.958,2.679c2.699,0,4.777-1.479,4.777-3.418c0-1.12-0.92-2.039-2.479-2.499l-2.458-0.699
	c-1.141-0.32-1.301-0.4-1.301-0.64c0-0.16,0.141-0.32,0.4-0.46l1.039-0.6c0.52,0.199,0.779,0.238,1.219,0.238
	c2.08,0,3.698-1.499,3.698-3.418c0-0.779-0.22-1.339-0.659-1.778h1.898L284.327,11.374L284.327,11.374z M279.77,11.975
	c1.021,0,1.68,0.759,1.68,1.938c0,1.479-0.999,2.657-2.238,2.657c-1.061,0-1.76-0.738-1.76-1.817
	C277.45,13.213,278.471,11.975,279.77,11.975L279.77,11.975z M279.05,20.63c1.06,0.319,1.06,0.319,1.22,0.399
	c0.619,0.3,0.959,0.76,0.959,1.299c0,1.26-1.398,2.279-3.117,2.279c-1.539,0-2.698-0.801-2.698-1.879
	c0-0.84,0.739-1.561,2.538-2.438L279.05,20.63L279.05,20.63z"/>
<polygon fill="#000099" points="284.332,16.592 288.63,16.592 288.91,15.312 284.592,15.312 "/>
<polygon fill="#000099" points="289.764,20.97 291.382,20.97 292.682,14.673 299.678,14.673 298.378,20.97 299.997,20.97 
	302.775,7.637 301.157,7.637 299.957,13.413 292.941,13.413 294.141,7.637 292.542,7.637 "/>
<path fill="#000099" d="M311.574,19.71c-0.579,0.32-0.7,0.38-0.919,0.38c-0.262,0-0.4-0.18-0.4-0.54c0-0.239,0.021-0.38,0.16-1.079
	l0.899-4.317c0.1-0.44,0.159-0.94,0.159-1.22c0-1.199-0.778-1.859-2.219-1.859c-1.3,0-2.559,0.46-4.198,1.52l0.62,0.899
	c1.398-0.899,2.378-1.299,3.238-1.299c0.699,0,1.119,0.339,1.119,0.899c0,0.119-0.021,0.26-0.04,0.399l-0.3,1.439
	c-1.641,0.18-2.659,0.38-3.538,0.699c-1.759,0.62-2.68,1.699-2.68,3.158c0,1.38,1.079,2.459,2.499,2.459
	c1.06,0,1.959-0.479,2.938-1.539l-0.021,0.42c0,0.68,0.4,1.119,0.979,1.119c0.42,0,0.76-0.12,1.499-0.54
	c0.2-0.101,0.4-0.22,0.58-0.34L311.574,19.71L311.574,19.71z M308.916,18.65l-0.48,0.5c-0.539,0.578-1.339,0.959-1.999,0.959
	c-0.858,0-1.499-0.641-1.499-1.5c0-0.719,0.4-1.338,1.159-1.799c0.7-0.419,1.619-0.659,3.398-0.938L308.916,18.65L308.916,18.65z"/>
<path fill="#000099" d="M313.636,20.97h1.499l1.379-6.637c1.101-1.46,1.619-1.819,2.6-1.819c0.3,0,0.46,0.04,0.818,0.141l0.4-1.46
	c-0.38-0.08-0.561-0.1-0.8-0.1c-1.101,0-2.06,0.64-2.858,1.938l0.46-1.679h-1.499L313.636,20.97L313.636,20.97z"/>
<path fill="#000099" d="M320.493,20.97c1.52,0.04,2.039,0.061,2.499,0.061c1.479,0,2.578-0.28,3.658-0.921
	c1.959-1.178,3.218-3.357,3.218-5.615c0-2.02-1.179-3.419-2.858-3.419c-1.278,0-2.379,0.601-3.357,1.839l1.318-6.275h-1.499
	L320.493,20.97L320.493,20.97z M323.392,14.253c1.421-1.479,2.18-1.959,3.158-1.959c1.061,0,1.76,0.899,1.76,2.238
	c0,1.6-0.739,3.237-1.938,4.258c-0.939,0.819-1.999,1.18-3.378,1.18l-0.8-0.02L323.392,14.253L323.392,14.253z"/>
<path fill="#000099" d="M333.407,11.354l-1.398,6.816c-0.101,0.479-0.16,0.919-0.16,1.319c0,1.019,0.801,1.759,1.919,1.759
	c1.359,0,2.579-0.721,3.998-2.299l-0.5,2.02h1.499l1.999-9.615h-1.499l-1.318,6.376c-1.6,1.68-2.579,2.278-3.618,2.278
	c-0.521,0-0.92-0.38-0.92-0.858c0-0.221,0.081-0.721,0.181-1.26l1.359-6.537H333.407L333.407,11.354z"/>
<path fill="#000099" d="M342.163,20.97h1.499l1.38-6.637c1.099-1.46,1.619-1.819,2.598-1.819c0.301,0,0.46,0.04,0.82,0.141
	l0.399-1.46c-0.381-0.08-0.561-0.1-0.801-0.1c-1.1,0-2.059,0.64-2.857,1.938l0.46-1.679h-1.499L342.163,20.97L342.163,20.97z"/>
<path fill="#000099" d="M358.156,11.374l-2.879,0.061c-0.699-0.28-1.061-0.36-1.659-0.36c-1.039,0-1.919,0.32-2.6,0.94
	c-0.72,0.659-1.198,1.679-1.198,2.598c0,1.06,0.42,1.779,1.278,2.259l-1.618,0.858c-0.54,0.301-0.88,0.66-0.88,0.979
	c0,0.301,0.199,0.54,0.601,0.76c0.318,0.2,0.659,0.28,1.679,0.48c-1.959,0.719-3.019,1.759-3.019,2.958
	c0,1.56,1.64,2.679,3.958,2.679c2.697,0,4.776-1.479,4.776-3.418c0-1.12-0.919-2.039-2.479-2.499l-2.459-0.699
	c-1.14-0.32-1.299-0.4-1.299-0.64c0-0.16,0.14-0.32,0.398-0.46l1.04-0.6c0.521,0.199,0.779,0.238,1.219,0.238
	c2.079,0,3.698-1.499,3.698-3.418c0-0.779-0.22-1.339-0.659-1.778h1.898L358.156,11.374L358.156,11.374z M353.599,11.975
	c1.021,0,1.68,0.759,1.68,1.938c0,1.479-0.999,2.657-2.238,2.657c-1.06,0-1.76-0.738-1.76-1.817
	C351.279,13.213,352.299,11.975,353.599,11.975L353.599,11.975z M352.879,20.63c1.061,0.319,1.061,0.319,1.219,0.399
	c0.62,0.3,0.96,0.76,0.96,1.299c0,1.26-1.398,2.279-3.117,2.279c-1.539,0-2.699-0.801-2.699-1.879c0-0.84,0.739-1.561,2.539-2.438
	L352.879,20.63L352.879,20.63z"/>
<polygon fill="#FFFFFF" points="58.595,-70 58.595,-56.201 77.493,-56.201 77.293,-3.306 94.892,-3.306 95.092,-56.201 
	112.89,-56.201 112.89,-70 "/>
<path fill="#FFFFFF" d="M157.17-70l-0.2,37.197c0,8.099-0.399,10.799-1.699,13.199c-1.6,2.6-4.9,4.3-8.6,4.3
	c-4.5,0-8.199-2.3-9.599-5.899c-0.9-2.4-1.1-5.4-1.1-13.899l0.1-34.896h-17.598l-0.1,34.497v2.7c0,12.699,0.5,15.699,3.6,20.398
	c4.6,6.999,13.199,10.999,23.698,10.999c13.699,0,23.798-5.699,27.297-15.299c1.3-3.399,1.5-6.299,1.6-16.098l0.1-37.197H157.17V-70
	z"/>
<polygon fill="#FFFFFF" points="238.035,-3.306 238.336,-70 220.736,-70 220.639,-44.203 198.238,-44.203 198.339,-70 180.741,-70 
	180.441,-3.306 198.039,-3.306 198.238,-29.804 220.537,-29.804 220.438,-3.306 "/>
<polygon fill="#FFFFFF" points="302.609,-3.306 302.909,-70 285.312,-70 285.211,-44.203 262.812,-44.203 262.913,-70 245.314,-70 
	245.016,-3.306 262.613,-3.306 262.812,-29.804 285.109,-29.804 285.011,-3.306 "/>
</svg>
